<svg version="1.1" xmlns="http://www.w3.org/2000/svg" xmlns:xlink="http://www.w3.org/1999/xlink" x="0px" y="0px"
	 viewBox="0 0 120 120" xml:space="preserve">
	<path
   id="logoCombined"
   d="M 0,60 A 60,60 0 1 1 120,60 60,60 0 1 1 0,60
		M106.64,43.34a3,3,0,0,0-6,0,40.64,40.64,0,0,1-81.28,0,3,3,0,0,0-6,0A46.71,46.71,0,0,0,57,89.88v12.87H34.39a3,3,0,1,0,0,6H85.61a3,3,0,1,0,0-6H63V89.88A46.71,46.71,0,0,0,106.64,43.34Z
		M 59.89,75.44 C 72.664631,75.603579 84.982962,67.273386 89.588368,55.356667 91.106092,51.579583 91.891989,47.510605 91.89,43.44 c -2,0 -4,0 -6,0 C 86.051122,54.396453 78.465175,64.873876 68.005889,68.140857 57.647191,71.71398 45.325344,67.777604 38.956743,58.860724 32.328695,50.134969 32.222123,37.20007 38.705496,28.366288 43.457861,21.58762 51.611601,17.382187 59.89,17.44 c 0,-2 0,-4 0,-6 C 47.115369,11.276421 34.797038,19.606614 30.191632,31.523333 25.282599,43.318219 28.42634,57.852671 37.770902,66.564565 43.646342,72.223423 51.732414,75.468098 59.89,75.44 Z
		M60.74,33.22l-.5,6a4.23,4.23,0,0,1,3.86,3.86l6-.49A10.25,10.25,0,0,0,60.74,33.22Z
		M62.54,11.53l-.5,6A26,26,0,0,1,85.8,41.27l6-.49A32,32,0,0,0,62.54,11.53Z
		M61.64,22.36l-.5,6A15.16,15.16,0,0,1,75,42.17l6-.5A21.16,21.16,0,0,0,61.64,22.36Z" />
</svg>
