<svg version="1" xmlns="http://www.w3.org/2000/svg" width="2400" height="2400" viewBox="0 0 1800.000000 1800.000000"><path d="M870.5.6c-3.8.2-15.1.8-25 1.4-175.9 10.4-342.6 71.4-484.2 177.1-59.3 44.4-117.1 100.2-163.8 158.4-73.8 92.1-129.2 198.7-161.6 311-24 83-35.3 163.6-35.3 251 0 58.8 4.2 105.9 14.5 162.9C53.4 1274 168.6 1466.7 338 1602.1c137.7 110.2 303.1 176.9 477.5 192.8 58.9 5.4 108.7 5.4 168.5 0 242-21.8 466-143.1 619.5-335.4 54.1-67.7 99.2-145.4 131.7-226.5 60.3-150.7 78.4-318.9 51.7-480.5-27.3-165.6-99.6-318.4-210.4-445-25.3-28.9-42.1-46.1-72-73.4-92.6-84.6-204.2-149.8-323.5-188.9-88.7-29.1-176.4-43.5-272-44.6-17.3-.2-34.6-.2-38.5 0zM853.6 228c2.3 20.6 4.1 37.6 4 37.7-.1.2-5.4 1-11.7 1.8-101.1 14-193.2 67-255.8 147.2-67.2 86-95 192.5-79 302.3 15.7 107.6 79.8 207.5 172.4 268.4 53 35 110 55.3 175.5 62.8 15.2 1.7 68 1.7 82 0 68.5-8.4 124.5-28.9 178.5-65.3 38.2-25.7 76.6-63.5 102.8-101.1 27-38.7 47.1-82.8 58.6-128.6 3.9-15.6 8.1-37.4 8.1-42.3 0-5.1.4-5.2 18.6-2.9 34.4 4.2 57.9 7.2 58 7.4.4.3-3.6 25.7-5.1 33.1-14.7 71.1-43.8 135.9-86.3 191.8-30.2 39.8-70.4 78-111.2 105.6-120.4 81.6-272.1 102.7-410.6 57.2-106.6-35-198.3-108.6-256.2-205.6-32.8-55.1-54.2-116.7-62.1-179.1-12.3-97 4.3-192.2 48.3-276.9 70.1-134.8 197.5-226 348.1-249.1 8.3-1.2 15.9-2.2 17-2.1 1.9.2 2.2 2.4 6.1 37.7zm84.9-19.9c81.5 6.8 162.2 37.2 228.4 86.1 31.8 23.5 64.2 55 88.3 85.9 57.5 73.8 91.3 166.1 94.5 258.1l.6 18.8H1312v-4.3c0-9.2-2.1-37.9-3.6-49.2-11.4-87.8-50.9-169.3-113.4-233.9-52-53.7-119.9-93.2-191.5-111.4-31.5-8-55.9-11.6-88.5-13l-15.5-.7-.3-18c-.1-9.8 0-18.6.3-19.3.6-1.5 13.6-1.2 39 .9zm-3.5 108c117.7 12.4 220.5 84.2 272.5 190.4 20.9 42.6 32.5 88.2 34.2 134.2l.6 16.3h-38l-.6-13.8c-5.6-122.5-84.4-229.8-199.8-272.1-28.6-10.5-58.9-16.6-89.6-17.9l-14.8-.7-.3-18c-.1-9.8 0-18.6.3-19.4.5-1.1 2.7-1.3 13.3-.7 7 .4 17 1.1 22.2 1.7zm-2 108.5c79.5 11.2 148.9 63.8 181.4 137.3 11.8 26.6 18.8 57.1 19.8 85.6l.3 9-19.2.3-19.3.2v-6.9c0-10.3-2.6-27.9-6-41.6-13.9-54.9-51.8-101.9-102.6-127.3-22.5-11.2-48.9-18.5-71.8-19.8-5.5-.3-11.6-.7-13.3-1l-3.3-.5v-18.3c0-10 .3-18.6.8-19 .9-1 19.9.2 33.2 2zm-7.7 108c38.2 7.9 71.4 33.9 88.7 69.2 7 14.3 10.6 28.2 12.6 48.4l.6 6.8h-38.9l-.6-8.3c-2.6-34.1-27.2-65-60.3-75.7-7.5-2.4-21.6-5-27.1-5-1 0-1.3-4.1-1.3-18.3 0-10.1.3-18.7.8-19.1 1-1.1 17 .2 25.5 2zM268 622.2c8.4 3.8 14.4 9.8 18.7 18.4l3.7 7.5.7 26.2c1.7 58.4 10.3 109.6 27.6 165.2 48.3 155.5 159.8 287 306.1 360.8 62.5 31.6 124.4 50.8 193.5 60.1 27.1 3.7 39.4 4.6 69.2 5.3 136.4 2.9 268.6-39.7 378-122 44.7-33.5 87.8-76.6 121.2-121.2 54-71.9 92.2-156.7 109.6-243.5 7.5-37 12.6-86 12.7-120.7 0-14.5 5.3-25.2 16.2-32.6 19.4-13.2 45.6-6.1 56.1 15.2l3.2 6.6-.1 24c-.1 77.9-17.6 163.9-49.2 242.5-24 59.6-60 121-100.5 171.5-20.7 25.7-55.1 62-78.2 82.4-79.7 70.6-167.7 119.2-268 148.1-42.5 12.3-92.4 21.3-134.2 24.2l-16.3 1.2V1544l174.8.2 174.7.3 6 2.4c8.4 3.4 18.3 13.3 21.5 21.6 3.1 8 3.2 19.8.2 27.3-3.9 10.1-12.1 18.3-22.4 22.5l-5.3 2.2h-776l-5.7-2.3c-8.1-3.3-16-10.8-20-19-3.1-6.2-3.3-7.4-3.3-16.7 0-9.3.2-10.5 3.3-16.7 5.3-10.9 15.5-18.6 27.4-20.8 3.1-.6 71.1-1 176.4-1H861v-203h-4.8c-2.7 0-12-.7-20.8-1.5-162.4-15.5-312.5-87.2-425.9-203.6-122-125.3-189.4-284.5-195.1-460.9-.6-17.4-.4-21.5 1-27 3.4-13.3 12.8-23.3 26.1-27.7 6.4-2.1 19.9-1.1 26.5 1.9z"/></svg>